<svg width="18" height="18" viewBox="0 0 18 18" fill="none" xmlns="http://www.w3.org/2000/svg">
<path d="M11.5013 8.16602H9.83464V4.83268C9.83464 4.61167 9.74684 4.39971 9.59056 4.24343C9.43428 4.08715 9.22232 3.99935 9.00131 3.99935C8.78029 3.99935 8.56833 4.08715 8.41205 4.24343C8.25577 4.39971 8.16797 4.61167 8.16797 4.83268V8.99935C8.16797 9.22036 8.25577 9.43233 8.41205 9.58861C8.56833 9.74489 8.78029 9.83268 9.00131 9.83268H11.5013C11.7223 9.83268 11.9343 9.74489 12.0906 9.58861C12.2468 9.43233 12.3346 9.22036 12.3346 8.99935C12.3346 8.77834 12.2468 8.56637 12.0906 8.41009C11.9343 8.25381 11.7223 8.16602 11.5013 8.16602ZM9.00131 0.666016C7.35313 0.666016 5.74196 1.15476 4.37155 2.07044C3.00114 2.98611 1.93304 4.2876 1.30231 5.81032C0.671579 7.33304 0.506552 9.00859 0.828095 10.6251C1.14964 12.2416 1.94331 13.7265 3.10875 14.8919C4.27419 16.0573 5.75904 16.851 7.37555 17.1726C8.99206 17.4941 10.6676 17.3291 12.1903 16.6983C13.7131 16.0676 15.0145 14.9995 15.9302 13.6291C16.8459 12.2587 17.3346 10.6475 17.3346 8.99935C17.3346 7.905 17.1191 6.82137 16.7003 5.81032C16.2815 4.79927 15.6677 3.88061 14.8939 3.10679C14.12 2.33297 13.2014 1.71914 12.1903 1.30035C11.1793 0.881564 10.0957 0.666016 9.00131 0.666016ZM9.00131 15.666C7.68276 15.666 6.39383 15.275 5.2975 14.5425C4.20118 13.8099 3.34669 12.7687 2.84211 11.5506C2.33752 10.3324 2.2055 8.99195 2.46274 7.69875C2.71997 6.40554 3.35491 5.21765 4.28726 4.2853C5.21961 3.35295 6.4075 2.71802 7.7007 2.46078C8.99391 2.20355 10.3344 2.33557 11.5525 2.84015C12.7707 3.34474 13.8119 4.19922 14.5444 5.29555C15.277 6.39188 15.668 7.68081 15.668 8.99935C15.668 10.7675 14.9656 12.4632 13.7154 13.7134C12.4651 14.9636 10.7694 15.666 9.00131 15.666Z" fill="#E2E4E9"/>
</svg>
